<?xml version="1.0" encoding="utf-8"?>
<!-- Generator: Adobe Illustrator 24.1.1, SVG Export Plug-In . SVG Version: 6.00 Build 0)  -->
<svg version="1.1" id="Layer_1" xmlns="http://www.w3.org/2000/svg" xmlns:xlink="http://www.w3.org/1999/xlink" x="0px" y="0px"
	 viewBox="0 0 33 38" style="enable-background:new 0 0 33 38;" xml:space="preserve">
<style type="text/css">
	.st0{stroke:#231F20;stroke-miterlimit:10;}
</style>
<path class="st0" d="M16.43,0.91l-0.14-0.02L2.65,2.4V28.6l13.64,8.51l13.64-8.51V2.4L16.43,0.91z M28.14,27.54l-11.86,7.39
	L4.43,27.54V16.8l11.8,7.37l0.02,1.33l-8.1-5.05l-0.01,1.3l8.13,5.12l0.02,1.37l-8.12-5.07l-0.01,1.3l8.13,5.12l8.21-5.15v-1.3
	l-0.01,0.01v-0.44v-0.53v-3.25l3.66-2.29L28.14,27.54L28.14,27.54z M28.13,15.22l-3.24,2l-1.5,0.92l-7.14-4.45l-0.01,1.3l6.1,3.8
	l-0.05,0.03l-0.13,0.08l-0.87,0.54l-5.04-3.14l-0.01,1.3l3.98,2.48l-0.94,0.66l-0.02,0.01l-3-1.86l-0.01,1.3l1.97,1.22l-2.01,1.26
	L4.46,15.36l11.76-7.41l0,0L28.13,15.22z M28.14,13.92L16.22,6.56l0,0l0,0l0,0l0,0L4.43,13.91V4.08l11.85-1.3l11.85,1.3L28.14,13.92
	L28.14,13.92z"/>
</svg>
