<svg xmlns="http://www.w3.org/2000/svg" viewBox="0 0 33 38">
    <path d="M16.43.91l-.14-.02L2.65 2.4v26.2l13.64 8.51 13.64-8.51V2.4L16.43.91zm11.71 26.63l-11.86 7.39-11.85-7.39V16.8l11.8 7.37.02 1.33-8.1-5.05-.01 1.3 8.13 5.12.02 1.37-8.12-5.07-.01 1.3 8.13 5.12 8.21-5.15v-1.3l-.01.01v-4.22l3.66-2.29-.01 10.9h0zm-.01-12.32l-3.24 2-1.5.92-7.14-4.45-.01 1.3 6.1 3.8-.05.03-.13.08-.87.54-5.04-3.14-.01 1.3 3.98 2.48-.94.66-.02.01-3-1.86-.01 1.3 1.97 1.22-2.01 1.26-11.75-7.31 11.76-7.41h0l11.91 7.27zm.01-1.3L16.22 6.56h0L4.43 13.91V4.08l11.85-1.3 11.85 1.3.01 9.84h0z"
          stroke="#231f20" stroke-miterlimit="10"/>
</svg>