<svg version="1.1" id="Laag_1" xmlns="http://www.w3.org/2000/svg" x="0" y="0" viewBox="0 0 100.68 76.89" xml:space="preserve"><style>.st1{fill:#fff}</style><path d="M96.96 18.15s-.92-7.01-3.79-10.08C89.54 4.03 85.5 4 83.63 3.77c-13.33-1.02-33.3-1.02-33.3-1.02h-.05s-19.98 0-33.3 1.02c-1.88.23-5.92.26-9.55 4.3-2.84 3.1-3.79 10.08-3.79 10.08s-.9 8.21-.9 16.42v7.7c0 8.21.95 16.42.95 16.42s.92 7.01 3.79 10.08c3.63 4.04 8.36 3.91 10.49 4.35 7.62.77 32.36 1.02 32.36 1.02s20-.03 33.33-1.05c1.87-.23 5.91-.26 9.54-4.3 2.84-3.07 3.79-10.08 3.79-10.08s.95-8.21.95-16.42v-7.7c-.04-8.23-.98-16.44-.98-16.44z" fill="#63d1bb"/><path class="st1" d="M50.31 76.89h-.01c-1.01-.01-24.95-.27-32.6-1.04l-.14-.01-.14-.03c-.27-.06-.67-.11-1.13-.17-2.5-.33-7.16-.94-10.84-5.02C2.1 67.01 1.08 59.85.97 59.05v-.04C.93 58.66 0 50.54 0 42.27v-7.7c0-8.27.88-16.38.91-16.72l.01-.07c.11-.8 1.16-7.93 4.47-11.56 4-4.44 8.53-4.9 10.71-5.12.19-.02.37-.04.53-.06l.13-.01C30.04.01 50.07 0 50.28 0h.05c.2 0 20.24.01 33.51 1.03l.13.01c.16.02.34.04.53.06 2.18.22 6.71.68 10.7 5.11 3.35 3.62 4.38 10.77 4.48 11.58v.04c.04.34.96 8.46.99 16.75v7.71c0 8.27-.93 16.4-.96 16.74l-.01.05c-.11.81-1.16 7.95-4.48 11.56-3.99 4.43-8.53 4.9-10.71 5.12-.19.02-.37.04-.53.06l-.13.01c-13.28 1.02-33.33 1.06-33.53 1.06h-.01zm-31.94-6.5c7.48.73 31.22.99 31.97 1 .66 0 20.13-.05 33.05-1.04.18-.02.37-.04.58-.06 1.84-.19 4.61-.47 7.19-3.33l.03-.03c1.83-1.97 2.85-6.93 3.08-8.55.06-.51.93-8.36.93-16.08v-7.7c-.02-7.76-.9-15.63-.95-16.11-.32-2.38-1.43-6.79-3.07-8.54l-.04-.04c-2.58-2.87-5.35-3.15-7.19-3.34-.21-.02-.4-.04-.58-.06C70.3 5.52 50.53 5.5 50.33 5.5h-.05c-.2 0-19.97.01-33.03 1.01-.18.02-.37.04-.58.06-1.83.19-4.61.47-7.19 3.34l-.02.02c-1.83 1.99-2.86 6.92-3.08 8.55-.06.59-.88 8.4-.88 16.09v7.7c0 7.75.87 15.6.93 16.08.32 2.38 1.43 6.79 3.07 8.54l.04.04c2.32 2.58 5.3 2.97 7.48 3.26.47.06.93.12 1.35.2z"/><g><path class="st1" d="M38.43 20.58v35.71l29.75-17.86z"/></g></svg>